<!-- Save as twitter.svg -->
<svg xmlns="http://www.w3.org/2000/svg" viewBox="0 0 24 24" fill="#ffffff">
  <path d="M22.46 6c-.77.35-1.6.59-2.46.7a4.27 4.27 0 0 0 1.88-2.36 8.61 8.61 0 0 1-2.72 1.04 4.23 4.23 0 0 0-7.22 3.85A12 12 0 0 1 3.16 4.87a4.22 4.22 0 0 0 1.31 5.65 4.23 4.23 0 0 1-1.91-.53v.05a4.24 4.24 0 0 0 3.4 4.15 4.3 4.3 0 0 1-1.9.07 4.24 4.24 0 0 0 3.95 2.93A8.5 8.5 0 0 1 2 19.55a12 12 0 0 0 6.29 1.84c7.55 0 11.68-6.26 11.68-11.68 0-.18 0-.36-.01-.53A8.36 8.36 0 0 0 22.46 6z"></path>
</svg>
